<svg id="Capa_1" data-name="Capa 1" xmlns="http://www.w3.org/2000/svg" width="1610.28" height="867.32" viewBox="0 0 1610.28 867.32"><defs><style>.cls-1{fill-rule:evenodd;}</style></defs><path class="cls-1" d="M273.81,326.47h0V0l52.63,332.27C449,358.05,540.93,466.72,540.93,596.9c0,148.25-119.29,268.62-267.12,270.42V326.47Zm-145,500.86A270.29,270.29,0,0,1,0,596.9C0,466.41,92.41,357.51,215.35,332.06L128.81,827.33Z"/><path d="M686,499.19,592.19,694.85h35.32l19.39-44.68,73.42.35,22.16,44.33h39.13ZM659.72,627.66l26.66-58.17,27.7,58.17Z"/><path d="M905.24,610C983.15,587.15,964.8,506.81,881,506.81h-55.4v188H862V614.16c54,61.64,78.95,80.69,78.95,80.69h42.94S927.05,639.44,905.24,610Zm-42.6-13V526.55h15.59c54,0,51.25,70.47,0,70.47Z"/><path d="M1170.15,509.23c-51.6-20.08-161.37,0-161.37,95.23,0,100.43,126.39,113.59,172.1,82.77v-86.4h-33.59v69.43c-32.64,17.83-98.69,1.47-98.69-67,0-74.33,72.39-94.3,121.56-62.45C1170.16,530,1170.15,509.23,1170.15,509.23Z"/><path d="M1334.29,498.5c-56.8,0-102.85,45.54-102.85,101.71s46,101.72,102.85,101.72,102.85-45.54,102.85-101.72S1391.09,498.5,1334.29,498.5Zm.52,176.61c-33.76,0-61.12-33.49-61.12-74.8s27.36-74.8,61.12-74.8,61.12,33.49,61.12,74.8S1368.56,675.11,1334.81,675.11Z"/><path d="M1597.12,509.58c-36.36-16.28-117.74-11.08-117.74,44s95.93,57.83,95.93,93.15-51.26,37-92.81,14.89v33.25c47.79,9,127.78,14.54,127.78-52.29s-93.84-55.65-93.84-94.89,75.14-15.58,80.33-8.31C1596.77,524.82,1597.12,509.58,1597.12,509.58Z"/></svg>